<svg aria-hidden="true" style="position: absolute; width: 0; height: 0; overflow: hidden;" version="1.1" xmlns="http://www.w3.org/2000/svg" xmlns:xlink="http://www.w3.org/1999/xlink">
<defs>
<symbol id="icon-up-arrow" viewBox="0 0 30 32">
<path d="M0.393 9.042l13.427 13.493c0.252 0.253 0.593 0.395 0.949 0.395s0.698-0.142 0.949-0.395l13.426-13.493c0.525-0.527 0.525-1.381 0-1.908s-1.374-0.527-1.899 0l-12.477 12.539-12.477-12.539c-0.262-0.263-0.606-0.395-0.949-0.395s-0.687 0.132-0.949 0.395c-0.524 0.527-0.524 1.381 0 1.908z"></path>
</symbol>
<symbol id="icon-hamburger" viewBox="0 0 47 32">
<path d="M0 0.654h47.059v3.746h-47.059v-3.746z"></path>
<path d="M0 13.766h22.588v3.746h-22.588v-3.746z"></path>
<path d="M0 26.877h47.059v3.746h-47.059v-3.746z"></path>
</symbol>
</defs>
</svg>
