<svg aria-hidden="true" style="position: absolute; width: 0; height: 0; overflow: hidden;" version="1.1" xmlns="http://www.w3.org/2000/svg" xmlns:xlink="http://www.w3.org/1999/xlink">
<defs>
<symbol id="arrow-left" viewBox="0 0 30 32">
<path d="M22.441 1.092l-13.688 13.623c-0.247 0.246-0.4 0.587-0.4 0.963s0.153 0.717 0.4 0.963l13.69 13.623c0.248 0.247 0.591 0.399 0.968 0.399s0.72-0.153 0.969-0.399l-0 0c0.248-0.246 0.402-0.587 0.402-0.964s-0.154-0.718-0.402-0.964l-0-0-12.725-12.659 12.723-12.659c0.248-0.246 0.401-0.586 0.401-0.963s-0.154-0.717-0.401-0.963l-0-0c-0.248-0.247-0.591-0.399-0.968-0.399s-0.72 0.153-0.969 0.399l0-0z"></path>
</symbol>
<symbol id="arrow-right" viewBox="0 0 30 32">
<path d="M7.676 30.263l13.688-13.623c0.248-0.246 0.401-0.587 0.401-0.964s-0.153-0.718-0.401-0.964l-0-0-13.688-13.621c-0.248-0.247-0.591-0.399-0.968-0.399s-0.72 0.153-0.969 0.399l0-0c-0.247 0.246-0.401 0.586-0.401 0.963s0.153 0.717 0.401 0.963l0 0 12.723 12.659-12.723 12.659c-0.249 0.246-0.402 0.587-0.402 0.964s0.154 0.718 0.402 0.964l0 0c0.248 0.247 0.591 0.399 0.968 0.399s0.72-0.153 0.969-0.399l-0 0z"></path>
</symbol>
<symbol id="close1" viewBox="0 0 32 32">
<path d="M22.986 23.946c-0.177 0.191-0.428 0.31-0.708 0.312h-0c-0.279-0.003-0.529-0.122-0.705-0.311l-0.001-0.001-5.346-5.346-5.232 5.234c-0.177 0.19-0.429 0.309-0.708 0.31h-0c-0.004 0-0.009 0-0.014 0-0.261 0-0.497-0.108-0.665-0.282l-0-0-1.78-1.782c-0.191-0.177-0.31-0.428-0.312-0.708v-0c0-0.264 0.104-0.5 0.312-0.706l5.232-5.234-5.178-5.176c-0.19-0.177-0.309-0.427-0.312-0.706v-0c0-0.264 0.104-0.5 0.312-0.708l1.952-1.952c0.177-0.189 0.427-0.308 0.706-0.31h0c0.264 0 0.5 0.104 0.708 0.31l5.176 5.178 5.232-5.234c0.169-0.174 0.404-0.282 0.666-0.282 0.005 0 0.010 0 0.015 0h-0.001c0.264 0 0.5 0.104 0.706 0.31l1.782 1.782c0.174 0.169 0.282 0.404 0.282 0.665 0 0.005-0 0.010-0 0.015v-0.001c0 0.005 0 0.011 0 0.016 0 0.26-0.107 0.495-0.28 0.663l-0 0-5.234 5.228 5.346 5.346c0.19 0.177 0.309 0.429 0.31 0.708v0c0 0.264-0.104 0.5-0.31 0.706l-1.952 1.952z"></path>
</symbol>
<symbol id="open" viewBox="0 0 29 32">
<path d="M12.819 30.24c-0.014 0.001-0.031 0.001-0.048 0.001-0.356 0-0.678-0.143-0.912-0.374l0 0c-0.231-0.234-0.374-0.557-0.374-0.912 0-0.017 0-0.034 0.001-0.050l-0 0.002v-10.080h-9.867c-0.014 0.001-0.031 0.001-0.048 0.001-0.356 0-0.678-0.143-0.912-0.374l0 0c-0.231-0.225-0.374-0.538-0.374-0.885 0-0.008 0-0.015 0-0.023l-0 0.001v-3.36c0-0.392 0.123-0.712 0.373-0.96 0.234-0.231 0.557-0.374 0.912-0.374 0.017 0 0.034 0 0.050 0.001l-0.002-0h9.867v-9.76c0-0.392 0.123-0.712 0.373-0.96 0.234-0.231 0.557-0.374 0.912-0.374 0.017 0 0.034 0 0.050 0.001l-0.002-0h3.68c0.389 0 0.709 0.125 0.96 0.373 0.248 0.248 0.373 0.568 0.373 0.96v9.76h9.867c0.355 0 0.656 0.125 0.907 0.373 0.248 0.248 0.373 0.568 0.373 0.96v3.36c0 0.006 0 0.014 0 0.022 0 0.347-0.143 0.66-0.373 0.885l-0 0c-0.225 0.231-0.538 0.374-0.885 0.374-0.008 0-0.015-0-0.023-0l0.001 0h-9.867v10.080c0.001 0.014 0.001 0.031 0.001 0.048 0 0.356-0.143 0.678-0.374 0.912l0-0c-0.234 0.231-0.557 0.374-0.912 0.374-0.017 0-0.034-0-0.050-0.001l0.002 0h-3.68z"></path>
</symbol>
</defs>
</svg>
